<mxfile host="app.diagrams.net" modified="2021-05-04T05:20:18.599Z" agent="5.0 (Windows NT 10.0; Win64; x64) AppleWebKit/537.36 (KHTML, like Gecko) Chrome/90.0.4430.93 Safari/537.36" etag="WUh0q7bb2hmekTIfx4Y3" version="14.6.9" type="github">
  <diagram name="포머슬" id="e7e014a7-5840-1c2e-5031-d8a46d1fe8dd">
    <mxGraphModel dx="2062" dy="1958" grid="1" gridSize="10" guides="1" tooltips="1" connect="1" arrows="1" fold="1" page="1" pageScale="1" pageWidth="1169" pageHeight="826" background="#ffffff" math="0" shadow="0">
      <root>
        <mxCell id="0" />
        <mxCell id="1" parent="0" />
        <mxCell id="zLem9wOpqEUZzIQjSlRr-41" value="고객" style="shape=umlActor;verticalLabelPosition=bottom;verticalAlign=top;html=1;outlineConnect=0;" parent="1" vertex="1">
          <mxGeometry x="120" y="320" width="30" height="60" as="geometry" />
        </mxCell>
        <mxCell id="zLem9wOpqEUZzIQjSlRr-53" value="" style="rounded=0;whiteSpace=wrap;html=1;" parent="1" vertex="1">
          <mxGeometry x="220" y="-60" width="1660" height="1630" as="geometry" />
        </mxCell>
        <mxCell id="zLem9wOpqEUZzIQjSlRr-54" value="회원가입" style="ellipse;whiteSpace=wrap;html=1;" parent="1" vertex="1">
          <mxGeometry x="550" y="60" width="140" height="70" as="geometry" />
        </mxCell>
        <mxCell id="zLem9wOpqEUZzIQjSlRr-62" value="" style="endArrow=open;endFill=1;endSize=12;html=1;" parent="1" target="zLem9wOpqEUZzIQjSlRr-54" edge="1">
          <mxGeometry width="160" relative="1" as="geometry">
            <mxPoint x="150" y="370" as="sourcePoint" />
            <mxPoint x="293.18894841096835" y="197.33097397500842" as="targetPoint" />
            <Array as="points">
              <mxPoint x="330" y="180" />
            </Array>
          </mxGeometry>
        </mxCell>
        <mxCell id="zLem9wOpqEUZzIQjSlRr-65" value="&amp;lt;&amp;lt;include&amp;gt;&amp;gt;" style="html=1;verticalAlign=bottom;labelBackgroundColor=none;endArrow=open;endFill=0;dashed=1;exitX=0.5;exitY=1;exitDx=0;exitDy=0;" parent="1" source="zLem9wOpqEUZzIQjSlRr-54" target="zLem9wOpqEUZzIQjSlRr-66" edge="1">
          <mxGeometry x="-0.0049" width="160" relative="1" as="geometry">
            <mxPoint x="623.9196729314392" y="197.7070707225139" as="sourcePoint" />
            <mxPoint x="679" y="270" as="targetPoint" />
            <mxPoint as="offset" />
          </mxGeometry>
        </mxCell>
        <mxCell id="zLem9wOpqEUZzIQjSlRr-66" value="로그인" style="ellipse;whiteSpace=wrap;html=1;" parent="1" vertex="1">
          <mxGeometry x="550" y="270" width="140" height="70" as="geometry" />
        </mxCell>
        <mxCell id="zLem9wOpqEUZzIQjSlRr-67" value="아이디/비밀번호 찾기" style="ellipse;whiteSpace=wrap;html=1;" parent="1" vertex="1">
          <mxGeometry x="440" y="680" width="140" height="70" as="geometry" />
        </mxCell>
        <mxCell id="zLem9wOpqEUZzIQjSlRr-69" value="마이페이지" style="ellipse;whiteSpace=wrap;html=1;" parent="1" vertex="1">
          <mxGeometry x="790" y="250" width="140" height="70" as="geometry" />
        </mxCell>
        <mxCell id="zLem9wOpqEUZzIQjSlRr-70" value="내 정보" style="ellipse;whiteSpace=wrap;html=1;" parent="1" vertex="1">
          <mxGeometry x="930" y="455" width="140" height="70" as="geometry" />
        </mxCell>
        <mxCell id="zLem9wOpqEUZzIQjSlRr-71" value="기록" style="ellipse;whiteSpace=wrap;html=1;" parent="1" vertex="1">
          <mxGeometry x="1040" y="50" width="140" height="70" as="geometry" />
        </mxCell>
        <mxCell id="zLem9wOpqEUZzIQjSlRr-72" value="PlanCheck" style="ellipse;whiteSpace=wrap;html=1;" parent="1" vertex="1">
          <mxGeometry x="1029" y="270" width="140" height="70" as="geometry" />
        </mxCell>
        <mxCell id="zLem9wOpqEUZzIQjSlRr-75" value="&amp;lt;&amp;lt;include&amp;gt;&amp;gt;" style="html=1;verticalAlign=bottom;labelBackgroundColor=none;endArrow=open;endFill=0;dashed=1;" parent="1" source="zLem9wOpqEUZzIQjSlRr-69" target="zLem9wOpqEUZzIQjSlRr-66" edge="1">
          <mxGeometry width="160" relative="1" as="geometry">
            <mxPoint x="560" y="360" as="sourcePoint" />
            <mxPoint x="720" y="360" as="targetPoint" />
          </mxGeometry>
        </mxCell>
        <mxCell id="zLem9wOpqEUZzIQjSlRr-76" value="Extends" style="endArrow=block;endSize=16;endFill=0;html=1;" parent="1" source="zLem9wOpqEUZzIQjSlRr-71" target="zLem9wOpqEUZzIQjSlRr-69" edge="1">
          <mxGeometry width="160" relative="1" as="geometry">
            <mxPoint x="570" y="450" as="sourcePoint" />
            <mxPoint x="730" y="450" as="targetPoint" />
          </mxGeometry>
        </mxCell>
        <mxCell id="zLem9wOpqEUZzIQjSlRr-77" value="Extends" style="endArrow=block;endSize=16;endFill=0;html=1;" parent="1" source="zLem9wOpqEUZzIQjSlRr-72" target="zLem9wOpqEUZzIQjSlRr-69" edge="1">
          <mxGeometry width="160" relative="1" as="geometry">
            <mxPoint x="700" y="435" as="sourcePoint" />
            <mxPoint x="820" y="435" as="targetPoint" />
            <Array as="points">
              <mxPoint x="940" y="300" />
            </Array>
          </mxGeometry>
        </mxCell>
        <mxCell id="zLem9wOpqEUZzIQjSlRr-78" value="" style="endArrow=open;endFill=1;endSize=12;html=1;" parent="1" target="zLem9wOpqEUZzIQjSlRr-66" edge="1">
          <mxGeometry width="160" relative="1" as="geometry">
            <mxPoint x="150" y="389" as="sourcePoint" />
            <mxPoint x="300" y="389" as="targetPoint" />
          </mxGeometry>
        </mxCell>
        <mxCell id="zLem9wOpqEUZzIQjSlRr-82" value="Extends" style="endArrow=block;endSize=16;endFill=0;html=1;" parent="1" source="zLem9wOpqEUZzIQjSlRr-70" target="zLem9wOpqEUZzIQjSlRr-69" edge="1">
          <mxGeometry width="160" relative="1" as="geometry">
            <mxPoint x="610" y="580" as="sourcePoint" />
            <mxPoint x="770" y="580" as="targetPoint" />
            <Array as="points">
              <mxPoint x="910" y="410" />
            </Array>
          </mxGeometry>
        </mxCell>
        <mxCell id="zLem9wOpqEUZzIQjSlRr-83" value="주간계획" style="ellipse;whiteSpace=wrap;html=1;" parent="1" vertex="1">
          <mxGeometry x="1270" y="283" width="140" height="70" as="geometry" />
        </mxCell>
        <mxCell id="zLem9wOpqEUZzIQjSlRr-84" value="나의 최근 기록" style="ellipse;whiteSpace=wrap;html=1;" parent="1" vertex="1">
          <mxGeometry x="1240" y="600" width="140" height="70" as="geometry" />
        </mxCell>
        <mxCell id="zLem9wOpqEUZzIQjSlRr-86" value="회원정보 수정" style="ellipse;whiteSpace=wrap;html=1;" parent="1" vertex="1">
          <mxGeometry x="1240" y="490" width="140" height="70" as="geometry" />
        </mxCell>
        <mxCell id="zLem9wOpqEUZzIQjSlRr-87" value="월간계획" style="ellipse;whiteSpace=wrap;html=1;" parent="1" vertex="1">
          <mxGeometry x="1260" y="370" width="140" height="70" as="geometry" />
        </mxCell>
        <mxCell id="zLem9wOpqEUZzIQjSlRr-88" value="Actor" style="shape=umlActor;verticalLabelPosition=bottom;verticalAlign=top;html=1;outlineConnect=0;" parent="1" vertex="1">
          <mxGeometry x="2020" y="353" width="30" height="60" as="geometry" />
        </mxCell>
        <mxCell id="zLem9wOpqEUZzIQjSlRr-90" value="" style="endArrow=open;endFill=1;endSize=12;html=1;entryX=0.014;entryY=0.329;entryDx=0;entryDy=0;entryPerimeter=0;" parent="1" target="zLem9wOpqEUZzIQjSlRr-67" edge="1">
          <mxGeometry width="160" relative="1" as="geometry">
            <mxPoint x="150" y="420" as="sourcePoint" />
            <mxPoint x="570" y="690" as="targetPoint" />
            <Array as="points">
              <mxPoint x="220" y="723" />
            </Array>
          </mxGeometry>
        </mxCell>
        <mxCell id="zLem9wOpqEUZzIQjSlRr-91" value="" style="endArrow=open;endFill=1;endSize=12;html=1;" parent="1" source="zLem9wOpqEUZzIQjSlRr-70" target="zLem9wOpqEUZzIQjSlRr-86" edge="1">
          <mxGeometry width="160" relative="1" as="geometry">
            <mxPoint x="920" y="480" as="sourcePoint" />
            <mxPoint x="1080" y="480" as="targetPoint" />
            <Array as="points">
              <mxPoint x="1150" y="490" />
            </Array>
          </mxGeometry>
        </mxCell>
        <mxCell id="zLem9wOpqEUZzIQjSlRr-92" value="" style="endArrow=open;endFill=1;endSize=12;html=1;" parent="1" source="zLem9wOpqEUZzIQjSlRr-70" target="zLem9wOpqEUZzIQjSlRr-84" edge="1">
          <mxGeometry width="160" relative="1" as="geometry">
            <mxPoint x="900" y="720" as="sourcePoint" />
            <mxPoint x="1060" y="720" as="targetPoint" />
            <Array as="points">
              <mxPoint x="1150" y="580" />
            </Array>
          </mxGeometry>
        </mxCell>
        <mxCell id="zLem9wOpqEUZzIQjSlRr-93" value="" style="endArrow=open;endFill=1;endSize=12;html=1;" parent="1" source="zLem9wOpqEUZzIQjSlRr-72" target="zLem9wOpqEUZzIQjSlRr-83" edge="1">
          <mxGeometry width="160" relative="1" as="geometry">
            <mxPoint x="950" y="520" as="sourcePoint" />
            <mxPoint x="1090" y="520" as="targetPoint" />
          </mxGeometry>
        </mxCell>
        <mxCell id="zLem9wOpqEUZzIQjSlRr-94" value="" style="endArrow=open;endFill=1;endSize=12;html=1;exitX=1;exitY=1;exitDx=0;exitDy=0;" parent="1" source="zLem9wOpqEUZzIQjSlRr-72" target="zLem9wOpqEUZzIQjSlRr-87" edge="1">
          <mxGeometry width="160" relative="1" as="geometry">
            <mxPoint x="930" y="570.97" as="sourcePoint" />
            <mxPoint x="1025.8689865568467" y="549.9986591906898" as="targetPoint" />
            <Array as="points">
              <mxPoint x="1160" y="370" />
            </Array>
          </mxGeometry>
        </mxCell>
        <mxCell id="zLem9wOpqEUZzIQjSlRr-96" value="My Data" style="ellipse;whiteSpace=wrap;html=1;" parent="1" vertex="1">
          <mxGeometry x="1300" y="200" width="140" height="70" as="geometry" />
        </mxCell>
        <mxCell id="zLem9wOpqEUZzIQjSlRr-97" value="" style="endArrow=open;endFill=1;endSize=12;html=1;" parent="1" source="zLem9wOpqEUZzIQjSlRr-72" target="zLem9wOpqEUZzIQjSlRr-96" edge="1">
          <mxGeometry width="160" relative="1" as="geometry">
            <mxPoint x="1090" y="250" as="sourcePoint" />
            <mxPoint x="1250" y="260" as="targetPoint" />
            <Array as="points">
              <mxPoint x="1160" y="250" />
            </Array>
          </mxGeometry>
        </mxCell>
        <mxCell id="zLem9wOpqEUZzIQjSlRr-98" value="일지" style="ellipse;whiteSpace=wrap;html=1;" parent="1" vertex="1">
          <mxGeometry x="1270" y="110" width="140" height="70" as="geometry" />
        </mxCell>
        <mxCell id="zLem9wOpqEUZzIQjSlRr-99" value="눈바디" style="ellipse;whiteSpace=wrap;html=1;" parent="1" vertex="1">
          <mxGeometry x="1270" y="20" width="140" height="70" as="geometry" />
        </mxCell>
        <mxCell id="zLem9wOpqEUZzIQjSlRr-100" value="" style="endArrow=open;endFill=1;endSize=12;html=1;exitX=1;exitY=0.5;exitDx=0;exitDy=0;" parent="1" source="zLem9wOpqEUZzIQjSlRr-71" target="zLem9wOpqEUZzIQjSlRr-99" edge="1">
          <mxGeometry width="160" relative="1" as="geometry">
            <mxPoint x="1140" y="80" as="sourcePoint" />
            <mxPoint x="1300" y="80" as="targetPoint" />
            <Array as="points">
              <mxPoint x="1220" y="67" />
            </Array>
          </mxGeometry>
        </mxCell>
        <mxCell id="zLem9wOpqEUZzIQjSlRr-101" value="" style="endArrow=open;endFill=1;endSize=12;html=1;" parent="1" source="zLem9wOpqEUZzIQjSlRr-71" target="zLem9wOpqEUZzIQjSlRr-98" edge="1">
          <mxGeometry width="160" relative="1" as="geometry">
            <mxPoint x="1130" y="140" as="sourcePoint" />
            <mxPoint x="1280" y="140" as="targetPoint" />
            <Array as="points">
              <mxPoint x="1220" y="121" />
            </Array>
          </mxGeometry>
        </mxCell>
        <mxCell id="zLem9wOpqEUZzIQjSlRr-103" value="My Program" style="ellipse;whiteSpace=wrap;html=1;" parent="1" vertex="1">
          <mxGeometry x="540" y="950" width="140" height="70" as="geometry" />
        </mxCell>
        <mxCell id="zLem9wOpqEUZzIQjSlRr-104" value="&amp;lt;&amp;lt;include&amp;gt;&amp;gt;" style="html=1;verticalAlign=bottom;labelBackgroundColor=none;endArrow=open;endFill=0;dashed=1;" parent="1" source="zLem9wOpqEUZzIQjSlRr-103" target="zLem9wOpqEUZzIQjSlRr-66" edge="1">
          <mxGeometry width="160" relative="1" as="geometry">
            <mxPoint x="640" y="470" as="sourcePoint" />
            <mxPoint x="800" y="470" as="targetPoint" />
          </mxGeometry>
        </mxCell>
        <mxCell id="zLem9wOpqEUZzIQjSlRr-105" value="내 운동 List" style="ellipse;whiteSpace=wrap;html=1;" parent="1" vertex="1">
          <mxGeometry x="889" y="1090" width="140" height="70" as="geometry" />
        </mxCell>
        <mxCell id="zLem9wOpqEUZzIQjSlRr-106" value="내 식단 List" style="ellipse;whiteSpace=wrap;html=1;" parent="1" vertex="1">
          <mxGeometry x="920" y="1180" width="140" height="70" as="geometry" />
        </mxCell>
        <mxCell id="zLem9wOpqEUZzIQjSlRr-107" value="운동 List&amp;nbsp;" style="ellipse;whiteSpace=wrap;html=1;" parent="1" vertex="1">
          <mxGeometry x="880" y="960" width="140" height="70" as="geometry" />
        </mxCell>
        <mxCell id="zLem9wOpqEUZzIQjSlRr-108" value="식단 List&amp;nbsp;" style="ellipse;whiteSpace=wrap;html=1;" parent="1" vertex="1">
          <mxGeometry x="870" y="870" width="140" height="70" as="geometry" />
        </mxCell>
        <mxCell id="zLem9wOpqEUZzIQjSlRr-117" value="&amp;lt;&amp;lt;include&amp;gt;&amp;gt;" style="html=1;verticalAlign=bottom;labelBackgroundColor=none;endArrow=open;endFill=0;dashed=1;entryX=0.293;entryY=0.943;entryDx=0;entryDy=0;entryPerimeter=0;" parent="1" source="zLem9wOpqEUZzIQjSlRr-67" target="zLem9wOpqEUZzIQjSlRr-54" edge="1">
          <mxGeometry x="0.1579" y="2" width="160" relative="1" as="geometry">
            <mxPoint x="410" y="634.5" as="sourcePoint" />
            <mxPoint x="570" y="634.5" as="targetPoint" />
            <Array as="points">
              <mxPoint x="290" y="470" />
              <mxPoint x="350" y="230" />
            </Array>
            <mxPoint as="offset" />
          </mxGeometry>
        </mxCell>
        <mxCell id="zLem9wOpqEUZzIQjSlRr-119" value="정보" style="ellipse;whiteSpace=wrap;html=1;" parent="1" vertex="1">
          <mxGeometry x="790" y="640" width="140" height="70" as="geometry" />
        </mxCell>
        <mxCell id="KNtJcjZVai5Th9V0MB9C-1" value="Extends" style="endArrow=block;endSize=16;endFill=0;html=1;" edge="1" parent="1" source="zLem9wOpqEUZzIQjSlRr-108" target="zLem9wOpqEUZzIQjSlRr-103">
          <mxGeometry width="160" relative="1" as="geometry">
            <mxPoint x="710" y="960" as="sourcePoint" />
            <mxPoint x="870" y="960" as="targetPoint" />
            <Array as="points">
              <mxPoint x="770" y="910" />
            </Array>
          </mxGeometry>
        </mxCell>
        <mxCell id="KNtJcjZVai5Th9V0MB9C-2" value="Extends" style="endArrow=block;endSize=16;endFill=0;html=1;exitX=0;exitY=0.5;exitDx=0;exitDy=0;" edge="1" parent="1" source="zLem9wOpqEUZzIQjSlRr-107" target="zLem9wOpqEUZzIQjSlRr-103">
          <mxGeometry width="160" relative="1" as="geometry">
            <mxPoint x="879.9979199214151" y="1038.618230147751" as="sourcePoint" />
            <mxPoint x="654.9562536740816" y="1070.0024647674882" as="targetPoint" />
          </mxGeometry>
        </mxCell>
        <mxCell id="KNtJcjZVai5Th9V0MB9C-3" value="Extends" style="endArrow=block;endSize=16;endFill=0;html=1;exitX=0.071;exitY=0.271;exitDx=0;exitDy=0;exitPerimeter=0;entryX=1;entryY=1;entryDx=0;entryDy=0;" edge="1" parent="1" source="zLem9wOpqEUZzIQjSlRr-105" target="zLem9wOpqEUZzIQjSlRr-103">
          <mxGeometry width="160" relative="1" as="geometry">
            <mxPoint x="879.9979199214149" y="1120.7882301477512" as="sourcePoint" />
            <mxPoint x="675.126085313716" y="1080.001533537647" as="targetPoint" />
            <Array as="points">
              <mxPoint x="750" y="1109" />
            </Array>
          </mxGeometry>
        </mxCell>
        <mxCell id="KNtJcjZVai5Th9V0MB9C-4" value="Extends" style="endArrow=block;endSize=16;endFill=0;html=1;" edge="1" parent="1" source="zLem9wOpqEUZzIQjSlRr-106" target="zLem9wOpqEUZzIQjSlRr-103">
          <mxGeometry x="-0.1201" y="-1" width="160" relative="1" as="geometry">
            <mxPoint x="962.437919921415" y="1220.7882301477512" as="sourcePoint" />
            <mxPoint x="757.566085313716" y="1180.001533537647" as="targetPoint" />
            <Array as="points">
              <mxPoint x="690" y="1200" />
            </Array>
            <mxPoint as="offset" />
          </mxGeometry>
        </mxCell>
        <mxCell id="KNtJcjZVai5Th9V0MB9C-5" value="Extends" style="endArrow=block;endSize=16;endFill=0;html=1;" edge="1" parent="1" source="KNtJcjZVai5Th9V0MB9C-6" target="zLem9wOpqEUZzIQjSlRr-119">
          <mxGeometry width="160" relative="1" as="geometry">
            <mxPoint x="1119.050793877748" y="695.9952707683015" as="sourcePoint" />
            <mxPoint x="909.9976042898063" y="750.0020604891533" as="targetPoint" />
            <Array as="points">
              <mxPoint x="1020" y="685" />
            </Array>
          </mxGeometry>
        </mxCell>
        <mxCell id="KNtJcjZVai5Th9V0MB9C-6" value="운동정보" style="ellipse;whiteSpace=wrap;html=1;" vertex="1" parent="1">
          <mxGeometry x="1120" y="660" width="140" height="70" as="geometry" />
        </mxCell>
        <mxCell id="KNtJcjZVai5Th9V0MB9C-7" value="인근 시설 정보" style="ellipse;whiteSpace=wrap;html=1;" vertex="1" parent="1">
          <mxGeometry x="1120" y="760" width="140" height="70" as="geometry" />
        </mxCell>
        <mxCell id="KNtJcjZVai5Th9V0MB9C-8" value="Extends" style="endArrow=block;endSize=16;endFill=0;html=1;" edge="1" parent="1" source="KNtJcjZVai5Th9V0MB9C-7" target="zLem9wOpqEUZzIQjSlRr-119">
          <mxGeometry width="160" relative="1" as="geometry">
            <mxPoint x="930" y="794.5" as="sourcePoint" />
            <mxPoint x="1090" y="794.5" as="targetPoint" />
            <Array as="points">
              <mxPoint x="1000" y="774" />
            </Array>
          </mxGeometry>
        </mxCell>
        <mxCell id="KNtJcjZVai5Th9V0MB9C-9" value="&amp;lt;&amp;lt;include&amp;gt;&amp;gt;" style="html=1;verticalAlign=bottom;labelBackgroundColor=none;endArrow=open;endFill=0;dashed=1;" edge="1" parent="1" target="zLem9wOpqEUZzIQjSlRr-66">
          <mxGeometry width="160" relative="1" as="geometry">
            <mxPoint x="811.8805894095351" y="651.43806910745" as="sourcePoint" />
            <mxPoint x="709.997574668251" y="659.9960354443124" as="targetPoint" />
          </mxGeometry>
        </mxCell>
        <mxCell id="KNtJcjZVai5Th9V0MB9C-12" value="" style="endArrow=classic;html=1;" edge="1" parent="1" source="zLem9wOpqEUZzIQjSlRr-88" target="zLem9wOpqEUZzIQjSlRr-119">
          <mxGeometry width="50" height="50" relative="1" as="geometry">
            <mxPoint x="1704" y="490" as="sourcePoint" />
            <mxPoint x="1760" y="440" as="targetPoint" />
            <Array as="points" />
          </mxGeometry>
        </mxCell>
        <mxCell id="KNtJcjZVai5Th9V0MB9C-13" value="" style="endArrow=classic;html=1;" edge="1" parent="1" source="zLem9wOpqEUZzIQjSlRr-88" target="zLem9wOpqEUZzIQjSlRr-99">
          <mxGeometry width="50" height="50" relative="1" as="geometry">
            <mxPoint x="1550" y="340" as="sourcePoint" />
            <mxPoint x="1600" y="290" as="targetPoint" />
            <Array as="points">
              <mxPoint x="1590" y="290" />
            </Array>
          </mxGeometry>
        </mxCell>
        <mxCell id="KNtJcjZVai5Th9V0MB9C-14" value="" style="endArrow=classic;html=1;" edge="1" parent="1" source="zLem9wOpqEUZzIQjSlRr-88" target="zLem9wOpqEUZzIQjSlRr-108">
          <mxGeometry width="50" height="50" relative="1" as="geometry">
            <mxPoint x="1250" y="760" as="sourcePoint" />
            <mxPoint x="1300" y="710" as="targetPoint" />
            <Array as="points">
              <mxPoint x="1420" y="881" />
            </Array>
          </mxGeometry>
        </mxCell>
        <mxCell id="KNtJcjZVai5Th9V0MB9C-15" value="" style="endArrow=classic;html=1;" edge="1" parent="1" target="zLem9wOpqEUZzIQjSlRr-107">
          <mxGeometry width="50" height="50" relative="1" as="geometry">
            <mxPoint x="2030" y="405.14634146341473" as="sourcePoint" />
            <mxPoint x="1019.6526033146993" y="911.5173698342649" as="targetPoint" />
            <Array as="points">
              <mxPoint x="1420" y="995" />
            </Array>
          </mxGeometry>
        </mxCell>
        <mxCell id="KNtJcjZVai5Th9V0MB9C-16" value="회원관리" style="ellipse;whiteSpace=wrap;html=1;" vertex="1" parent="1">
          <mxGeometry x="1614" y="30" width="140" height="70" as="geometry" />
        </mxCell>
        <mxCell id="KNtJcjZVai5Th9V0MB9C-17" value="회원등록" style="ellipse;whiteSpace=wrap;html=1;" vertex="1" parent="1">
          <mxGeometry x="1520" y="140" width="140" height="70" as="geometry" />
        </mxCell>
        <mxCell id="KNtJcjZVai5Th9V0MB9C-18" value="회원 삭제" style="ellipse;whiteSpace=wrap;html=1;" vertex="1" parent="1">
          <mxGeometry x="1710" y="130" width="140" height="70" as="geometry" />
        </mxCell>
        <mxCell id="KNtJcjZVai5Th9V0MB9C-19" value="" style="endArrow=classic;html=1;" edge="1" parent="1" target="KNtJcjZVai5Th9V0MB9C-16">
          <mxGeometry width="50" height="50" relative="1" as="geometry">
            <mxPoint x="1600" y="140" as="sourcePoint" />
            <mxPoint x="1650" y="90" as="targetPoint" />
          </mxGeometry>
        </mxCell>
        <mxCell id="KNtJcjZVai5Th9V0MB9C-20" value="" style="endArrow=open;endFill=1;endSize=12;html=1;entryX=1;entryY=1;entryDx=0;entryDy=0;" edge="1" parent="1" source="KNtJcjZVai5Th9V0MB9C-18" target="KNtJcjZVai5Th9V0MB9C-16">
          <mxGeometry width="160" relative="1" as="geometry">
            <mxPoint x="1670" y="304.5" as="sourcePoint" />
            <mxPoint x="1830" y="304.5" as="targetPoint" />
          </mxGeometry>
        </mxCell>
        <mxCell id="KNtJcjZVai5Th9V0MB9C-21" value="&amp;lt;&amp;lt;include&amp;gt;&amp;gt;" style="html=1;verticalAlign=bottom;labelBackgroundColor=none;endArrow=open;endFill=0;dashed=1;" edge="1" parent="1" source="KNtJcjZVai5Th9V0MB9C-16" target="zLem9wOpqEUZzIQjSlRr-54">
          <mxGeometry x="-0.0049" width="160" relative="1" as="geometry">
            <mxPoint x="859.5" y="40" as="sourcePoint" />
            <mxPoint x="859.5" y="180" as="targetPoint" />
            <mxPoint as="offset" />
            <Array as="points">
              <mxPoint x="1380" y="-10" />
              <mxPoint x="1150" y="10" />
            </Array>
          </mxGeometry>
        </mxCell>
        <mxCell id="KNtJcjZVai5Th9V0MB9C-22" value="" style="endArrow=open;endFill=1;endSize=12;html=1;" edge="1" parent="1" source="zLem9wOpqEUZzIQjSlRr-88" target="KNtJcjZVai5Th9V0MB9C-16">
          <mxGeometry width="160" relative="1" as="geometry">
            <mxPoint x="1190" y="230" as="sourcePoint" />
            <mxPoint x="1350" y="230" as="targetPoint" />
            <Array as="points">
              <mxPoint x="1850" y="90" />
            </Array>
          </mxGeometry>
        </mxCell>
      </root>
    </mxGraphModel>
  </diagram>
</mxfile>
